<svg xmlns="http://www.w3.org/2000/svg" width="86" height="92" fill="none" viewBox="0 0 86 92">
    <path fill="#002554" d="M32.582 72.83C20.94 69.523 12.807 58.203 12.807 45.3c0-4.913 1.188-9.736 3.432-13.987 1.32-.417 4.7-1.752 6.41-4.878 2.11-3.852.762-8.74.704-8.946-.191-.675-.836-1.079-1.48-.927-.196.046-4.84 1.179-6.95 5.031-1.698 3.101-1.156 6.87-.85 8.332-1.124 2.12-2.008 4.369-2.638 6.7-.503-.967-1.17-1.911-2.055-2.686-3.233-2.824-7.955-2.154-8.154-2.124-.653.098-1.125.716-1.085 1.42.013.215.341 5.299 3.573 8.123 2.134 1.865 4.915 2.206 6.617 2.214-.03.575-.048 1.15-.048 1.728 0 2.738.336 5.41.968 7.967-.777-.483-1.65-.874-2.61-1.074-4.097-.855-7.962 2.124-8.124 2.251-.532.416-.675 1.2-.328 1.8.106.184 2.642 4.497 6.739 5.351.512.107 1.02.154 1.519.154 2.173 0 4.148-.891 5.362-1.59 1.334 2.631 3.015 5.044 4.987 7.162-1.034.003-2.129.17-3.19.624-3.875 1.658-5.613 6.403-5.685 6.604-.236.659.041 1.4.636 1.703.132.067 2.429 1.213 5.157 1.213 1.042 0 2.147-.167 3.218-.625 2.554-1.094 4.18-3.528 5.011-5.118 2.43 1.632 5.112 2.899 7.991 3.716 1.632.396 2.205-2.118.648-2.61zm-15.48-49.87c.982-1.794 2.848-2.823 4.087-3.336.185 1.411.26 3.664-.717 5.447-.982 1.794-2.849 2.822-4.088 3.336-.185-1.411-.259-3.665.718-5.448zM5.312 39.267c-1.505-1.315-2.167-3.447-2.45-4.835 1.332.022 3.425.291 4.92 1.599 1.507 1.316 2.168 3.45 2.45 4.839-1.328-.02-3.414-.287-4.92-1.603zM7.41 58.946c-1.908-.398-3.432-1.941-4.296-3.022 1.184-.654 3.147-1.474 5.043-1.08 1.909.399 3.435 1.945 4.298 3.026-1.18.655-3.136 1.474-5.045 1.076zm10.583 15.387c-1.805.773-3.871.36-5.144-.048.66-1.236 1.888-3.059 3.693-3.831 1.806-.773 3.872-.36 5.145.048-.66 1.235-1.888 3.059-3.694 3.831zM85.483 54.445c-.163-.127-4.028-3.106-8.124-2.251-.96.2-1.833.591-2.61 1.074.632-2.557.968-5.229.968-7.967 0-.577-.019-1.153-.048-1.728 1.116-.005 2.694-.153 4.244-.776.653-.262.983-1.041.737-1.74-.245-.697-.973-1.05-1.625-.788-1.16.467-2.377.59-3.258.602.283-1.39.944-3.523 2.45-4.839 1.507-1.316 3.594-1.584 4.922-1.603-.164.81-.458 1.872-.974 2.88-.335.654-.11 1.474.501 1.833.611.357 1.379.118 1.713-.536 1.304-2.547 1.473-5.256 1.48-5.37.04-.704-.432-1.322-1.085-1.42-.2-.03-4.921-.7-8.153 2.125-.886.774-1.553 1.718-2.056 2.685-.63-2.33-1.513-4.58-2.639-6.7.307-1.461.849-5.23-.849-8.332-2.11-3.852-6.754-4.985-6.95-5.03-.644-.153-1.289.252-1.48.926-.058.207-1.407 5.094.703 8.947 1.711 3.125 5.09 4.46 6.41 4.877 2.245 4.251 3.432 9.074 3.432 13.987 0 12.902-8.131 24.222-19.774 27.529-1.615.566-.936 3 .647 2.61 2.88-.818 5.563-2.084 7.991-3.716.832 1.59 2.458 4.023 5.012 5.117 1.071.458 2.176.625 3.218.625 2.727 0 5.025-1.146 5.156-1.212.596-.303.873-1.045.637-1.704-.072-.2-1.81-4.945-5.685-6.604-1.061-.454-2.156-.621-3.19-.624 1.972-2.118 3.653-4.53 4.987-7.161 1.214.698 3.189 1.59 5.362 1.59.498 0 1.007-.047 1.52-.154 4.096-.854 6.632-5.168 6.738-5.351.347-.6.204-1.384-.328-1.8zm-15.864-26.04c-1.241-.518-3.115-1.55-4.09-3.334-.983-1.794-.909-4.038-.722-5.445 1.242.517 3.115 1.55 4.091 3.333.983 1.794.908 4.038.721 5.445zm-.162 42.049c1.805.772 3.034 2.596 3.693 3.83-1.274.408-3.339.822-5.144.049-1.804-.772-3.033-2.593-3.692-3.828 1.277-.406 3.349-.819 5.143-.051zm9.132-11.508c-1.908.398-3.865-.421-5.045-1.076.864-1.082 2.39-2.627 4.298-3.026 1.907-.397 3.862.42 5.042 1.075-.867 1.082-2.399 2.631-4.295 3.027z"/>
    <path fill="#002554" d="M61.664 62.111c-2.256-4.39-6.197-7.41-10.688-8.35 2.24-1.632 3.975-3.999 4.903-6.773 2.786-.063 5.034-2.505 5.034-5.499 0-2.72-1.855-4.984-4.282-5.423V34.31c.985-1.09 3.021-4.03 2.59-9.361-.183-2.265-.981-4.044-2.374-5.287-1.748-1.56-3.944-1.79-4.991-1.8-1.31-1.241-5.487-4.57-11.07-2.851-.837.257-1.631.568-2.43.952-.636.305-.92 1.104-.635 1.785.286.68 1.033.984 1.669.679.688-.331 1.373-.6 2.093-.821 5.157-1.587 8.823 2.385 8.973 2.552.264.296.645.449 1.026.413.493-.045 4.828-.296 5.225 4.61.294 3.643-.78 5.78-1.5 6.779-1.388-1.247-2.726-3.423-3.188-4.287-.175-.337-.633-.687-1.112-.68-.459.006-.878.278-1.096.71-1.18 2.347-3.283 3.4-4.674 3.859-.295-1.969-1.446-3.461-1.51-3.543-.423-.554-1.376-.685-1.912-.027-3.79 4.575-8.729 4.582-9.281 4.568-.086-.002-.172-.017-.256-.044-1.311-.418-2.621-1.511-3.606-2.503 3.107-.831 4.287-3.147 4.347-3.269.209-.425.191-.936-.046-1.344-.238-.407-.659-.647-1.108-.635-1.36.048-2.318-.465-2.93-1.553-.058-.105-.11-.21-.159-.315 2.627.03 4.512-.734 6.41-1.885.607-.368.82-1.192.477-1.84-.344-.65-1.114-.877-1.72-.51-1.932 1.171-3.727 1.816-6.696 1.413-.682-.105-1.48.538-1.419 1.431.103 1.616.968 4.306 3.37 5.436-.732.396-1.752.704-3.135.66-.983-.068-1.693 1.262-1.032 2.182.119.162 2.771 3.748 5.899 5.085v1.195c-2.427.44-4.282 2.704-4.282 5.424 0 2.994 2.248 5.436 5.034 5.498.928 2.774 2.663 5.141 4.903 6.774-4.491.939-8.433 3.96-10.688 8.35-.308.597-.15 1.346.368 1.745 1.141.88 2.35 1.682 3.594 2.381.617.347 1.38.094 1.705-.566.324-.66.087-1.477-.53-1.824-.797-.449-1.579-.942-2.335-1.475 2.318-3.71 6.162-6.029 10.349-6.21l.757 4.057-1.005 6.504c-1.118-.22-2.223-.514-3.307-.883-.665-.225-1.374.168-1.585.879-.211.71.157 1.47.82 1.695 2.934.996 5.997 1.501 9.103 1.501 6.352 0 12.426-2.095 17.566-6.059.516-.398.674-1.147.367-1.745zM56.631 42.35v-3.503c1.021.382 1.757 1.42 1.757 2.642 0 1.268-.791 2.34-1.873 2.684.074-.597.116-1.205.116-1.823zm-27.56-.86c0-1.222.737-2.261 1.758-2.643v3.503c0 .618.042 1.226.116 1.823-1.082-.344-1.873-1.416-1.873-2.684zm4.283.86v-7.125c1.806-.148 5.651-.863 9.048-4.142.212.559.359 1.229.23 1.877-.083.42.025.857.292 1.177.266.321.66.486 1.059.448.194-.02 4.197-.454 6.902-3.812.784 1.187 1.931 2.7 3.221 3.69v7.887c0 6.12-4.654 11.1-10.376 11.1-5.722 0-10.376-4.98-10.376-11.1zm12.586 13.8l-.503 2.697h-3.415l-.503-2.697h4.421zm-2.21 11.065c-.847 0-1.69-.042-2.528-.123l.856-5.545h3.344l.855 5.542c-.836.08-1.678.126-2.527.126zm5.03-.488l-1.005-6.508.757-4.056c4.187.18 8.031 2.499 10.35 6.21-3.085 2.177-6.505 3.646-10.102 4.354z"/>
</svg>
