<svg xmlns="http://www.w3.org/2000/svg" width="35" height="36" fill="#000" viewBox="0 0 35 36">
    <g clip-path="url(#clip0)">
        <path fill="#fff" d="M34.706 18c0-9.942-7.702-18-17.205-18C7.997 0 .295 8.058.295 18S7.997 36 17.5 36c.1 0 .201 0 .302-.007V21.987h-3.697V17.48h3.697v-3.32c0-3.845 2.245-5.94 5.525-5.94 1.572 0 2.923.12 3.313.175v4.022h-2.258c-1.781 0-2.13.886-2.13 2.187v2.869h4.267l-.558 4.507h-3.71v13.324C29.444 33.145 34.706 26.219 34.706 18z"/>
    </g>
    <defs>
        <clipPath id="clip0">
            <path fill="#fff" d="M0 0H34.411V36H0z" transform="translate(.295)"/>
        </clipPath>
    </defs>
    <style>
        
    </style>
</svg>
