<svg xmlns="http://www.w3.org/2000/svg" width="130" height="133" fill="none" viewBox="0 0 130 133">
    <path fill="url(#paint0_linear)" d="M129.167 89.453l-3.439-3.52c-3.741-3.854-9.669-4.34-13.962-1.145l-31.887 23.567-18.005-8.501h7.445c.176 0 .352-.022.523-.066l8.64-2.21c.962-.246 1.636-1.13 1.637-2.144v-8.839c0-1.014-.675-1.898-1.638-2.143l-8.64-2.21c-.17-.044-.346-.067-.522-.066H39.08c-.392 0-.776.11-1.112.316l-10.286 6.313H.202v4.42H28.28c.392 0 .777-.11 1.113-.316l10.285-6.314h29.375l6.746 1.726v5.388l-6.746 1.725H52.04c-1.193 0-2.16.99-2.16 2.21 0 .862.49 1.646 1.255 2.007l28.079 13.258c.706.329 1.53.245 2.16-.221l32.921-24.314c2.577-1.916 6.134-1.624 8.379.688l1.786 1.827-42.98 37.692H69.706L29.028 113.25c-.24-.091-.492-.137-.748-.137H.201v4.419h27.693l40.678 15.332c.239.09.492.136.747.137h12.96c.515 0 1.013-.189 1.404-.533l45.358-39.776c.458-.4.733-.977.756-1.593.023-.615-.205-1.211-.63-1.646z"/>
    <path fill="url(#paint1_linear)" d="M71.479 26.931v-4.42h-4.514c-.325-1.968-1.082-3.835-2.214-5.46l3.194-3.268-3.054-3.125-3.195 3.268c-1.588-1.158-3.413-1.933-5.337-2.265V7.043h-4.32v4.618c-1.923.332-3.748 1.107-5.337 2.265l-3.194-3.268-3.054 3.125 3.194 3.268c-1.133 1.625-1.89 3.492-2.214 5.46H36.92v4.42h4.514c.324 1.968 1.082 3.835 2.214 5.46l-3.194 3.269 3.054 3.124 3.194-3.268c1.589 1.159 3.414 1.933 5.337 2.265v4.618h4.32v-4.618c1.924-.332 3.75-1.106 5.337-2.265l3.195 3.268 3.054-3.124-3.194-3.269c1.132-1.625 1.89-3.492 2.214-5.46h4.514zm-17.28 6.63c-4.771 0-8.64-3.958-8.64-8.84 0-4.881 3.869-8.839 8.64-8.839 4.772 0 8.64 3.958 8.64 8.84 0 4.88-3.868 8.838-8.64 8.838z"/>
    <path fill="url(#paint2_linear)" d="M44.384 0c-3.192 1.328-6.09 3.3-8.523 5.798l3.055 3.125c2.024-2.081 4.438-3.724 7.097-4.83L44.384 0z"/>
    <path fill="url(#paint3_linear)" d="M33.241 19.182l-4.195-1.065c-1.513 6.214-.783 12.777 2.055 18.485l3.846-2.006c-2.364-4.76-2.97-10.233-1.706-15.414z"/>
    <path fill="url(#paint4_linear)" d="M72.515 5.799l-3.054 3.124c1.279 1.306 2.392 2.772 3.313 4.363l3.715-2.248c-1.102-1.911-2.438-3.672-3.974-5.24z"/>
    <path fill="url(#paint5_linear)" d="M93.08 51.238c.004 2.937-.568 5.846-1.683 8.552l3.98 1.715c1.34-3.249 2.028-6.74 2.022-10.267h-4.32z"/>
    <path fill="url(#paint6_linear)" d="M79.471 26.012l-1.332 4.203c4.962 1.654 9.173 5.084 11.86 9.66l3.7-2.277c-3.224-5.489-8.276-9.603-14.228-11.586z"/>
    <path fill="url(#paint7_linear)" d="M49.88 51.238h-4.32c-.017 5.908 1.915 11.648 5.483 16.293l3.404-2.718c-2.972-3.87-4.58-8.653-4.567-13.575z"/>
    <path fill="url(#paint8_linear)" d="M66.12 72.647l-1.073 4.282c2.102.55 4.263.827 6.432.826v-4.42c-1.807.003-3.608-.229-5.359-.688z"/>
    <path fill="url(#paint9_linear)" d="M88.758 53.449v-4.42h-4.514c-.324-1.968-1.081-3.835-2.214-5.46l3.195-3.269-3.055-3.124-3.194 3.268c-1.588-1.159-3.414-1.933-5.337-2.265V33.56h-4.32v4.619c-1.924.332-3.75 1.106-5.337 2.265l-3.195-3.268-3.054 3.124 3.194 3.269c-1.132 1.625-1.89 3.492-2.213 5.46h-4.515v4.42h4.515c.324 1.968 1.08 3.835 2.213 5.46l-3.194 3.268 3.054 3.125 3.195-3.268c1.588 1.158 3.413 1.933 5.337 2.265v4.618h4.32v-4.618c1.923-.332 3.749-1.107 5.337-2.265l3.194 3.268 3.055-3.125-3.195-3.268c1.133-1.625 1.89-3.492 2.214-5.46h4.514zm-17.28 6.629c-4.77 0-8.639-3.958-8.639-8.84 0-4.88 3.868-8.838 8.64-8.838 4.771 0 8.64 3.957 8.64 8.839 0 4.882-3.869 8.839-8.64 8.839z"/>
    <defs>
        <linearGradient id="paint0_linear" x1=".201" x2="129.799" y1="82.176" y2="82.176" gradientUnits="userSpaceOnUse">
            <stop offset=".05" stop-color="#40C1AC"/>
            <stop offset=".95" stop-color="#005EB8"/>
        </linearGradient>
        <linearGradient id="paint1_linear" x1="36.92" x2="71.479" y1="7.043" y2="7.043" gradientUnits="userSpaceOnUse">
            <stop offset=".05" stop-color="#40C1AC"/>
            <stop offset=".95" stop-color="#005EB8"/>
        </linearGradient>
        <linearGradient id="paint2_linear" x1="35.861" x2="46.013" y1="0" y2="0" gradientUnits="userSpaceOnUse">
            <stop offset=".05" stop-color="#40C1AC"/>
            <stop offset=".95" stop-color="#005EB8"/>
        </linearGradient>
        <linearGradient id="paint3_linear" x1="28.275" x2="34.947" y1="18.117" y2="18.117" gradientUnits="userSpaceOnUse">
            <stop offset=".05" stop-color="#40C1AC"/>
            <stop offset=".95" stop-color="#005EB8"/>
        </linearGradient>
        <linearGradient id="paint4_linear" x1="69.461" x2="76.489" y1="5.799" y2="5.799" gradientUnits="userSpaceOnUse">
            <stop offset=".05" stop-color="#40C1AC"/>
            <stop offset=".95" stop-color="#005EB8"/>
        </linearGradient>
        <linearGradient id="paint5_linear" x1="91.397" x2="97.399" y1="51.238" y2="51.238" gradientUnits="userSpaceOnUse">
            <stop offset=".05" stop-color="#40C1AC"/>
            <stop offset=".95" stop-color="#005EB8"/>
        </linearGradient>
        <linearGradient id="paint6_linear" x1="78.139" x2="93.699" y1="26.012" y2="26.012" gradientUnits="userSpaceOnUse">
            <stop offset=".05" stop-color="#40C1AC"/>
            <stop offset=".95" stop-color="#005EB8"/>
        </linearGradient>
        <linearGradient id="paint7_linear" x1="45.56" x2="54.447" y1="51.238" y2="51.238" gradientUnits="userSpaceOnUse">
            <stop offset=".05" stop-color="#40C1AC"/>
            <stop offset=".95" stop-color="#005EB8"/>
        </linearGradient>
        <linearGradient id="paint8_linear" x1="65.047" x2="71.479" y1="72.647" y2="72.647" gradientUnits="userSpaceOnUse">
            <stop offset=".05" stop-color="#40C1AC"/>
            <stop offset=".95" stop-color="#005EB8"/>
        </linearGradient>
        <linearGradient id="paint9_linear" x1="54.199" x2="88.758" y1="33.56" y2="33.56" gradientUnits="userSpaceOnUse">
            <stop offset=".05" stop-color="#40C1AC"/>
            <stop offset=".95" stop-color="#005EB8"/>
        </linearGradient>
    </defs>
</svg>
