<svg xmlns="http://www.w3.org/2000/svg" width="51" height="52" fill="none" viewBox="0 0 51 52">
    <g fill="#0C0F56" clip-path="url(#clip0)">
        <path d="M50.962 49.823l-2.308-8.167c-.153-.541-.156-1.114-.008-1.657l2.06-7.542c.469-1.687.373-3.512-.27-5.14l-2.916-7.344c-.313-.787-.862-1.41-1.534-1.817-.732-3.991-2.563-7.657-5.319-10.63-2.862-3.09-6.514-5.21-10.559-6.132-.537-.123-1.07.222-1.19.77-.12.547.219 1.09.756 1.212 3.656.834 6.957 2.75 9.545 5.544 2.285 2.466 3.868 5.458 4.625 8.72-.234.018-.468.059-.694.12-2.085.576-3.255 2.948-2.459 5l2.2 5.662c-1.923-.832-4.36.233-5.033 2.277l-2 6.047c-.19.543-.35 1.098-.463 1.662-2.955 1.855-6.348 2.833-9.84 2.833-3.546 0-6.982-1.005-9.964-2.911-.113-.538-.266-1.066-.448-1.584l-2-6.047c-.375-1.14-1.441-2.123-2.576-2.438-.84-.232-1.695-.168-2.455.161l2.198-5.662c.768-1.98-.293-4.28-2.274-4.943-.25-.084-.51-.14-.773-.168.751-3.245 2.32-6.225 4.584-8.683 2.554-2.774 5.813-4.694 9.425-5.552.536-.128.87-.674.744-1.22-.124-.546-.66-.886-1.196-.759-3.997.95-7.602 3.073-10.426 6.14-2.712 2.947-4.522 6.571-5.258 10.512-.727.402-1.323 1.053-1.654 1.886L.566 27.316v.002c-.643 1.627-.74 3.451-.272 5.135l2.061 7.546c.148.543.146 1.116-.007 1.657L.039 49.823c-.087.306-.027.637.161.892s.483.404.796.404h9.04c.416 0 .788-.263.934-.66l.581-1.594c.441-1.208 1.04-2.12 1.887-3.077.28-.315.52-.588.712-.862.96-1.378 1.493-2.718 1.613-4.147 3 1.636 6.349 2.493 9.791 2.493 3.4 0 6.715-.838 9.69-2.438.128 1.408.659 2.731 1.608 4.092.19.274.432.547.711.862.848.957 1.446 1.869 1.887 3.077l.582 1.593c.145.398.517.662.933.662h9.04c.65 0 1.137-.66.957-1.297zM12.526 43.75c-.124.177-.329.409-.567.677-.77.869-1.822 2.056-2.29 3.772l-.325.89H2.32l1.942-6.87c.255-.904.26-1.86.012-2.765l-2.062-7.55c-.349-1.257-.277-2.616.201-3.827l2.915-7.342c.316-.794 1.197-1.236 2.003-1.014.956.264 1.492 1.35 1.127 2.292l-2.29 5.898c-.628 1.637-.704 3.485-.21 5.17l1.25 4.31c.157.538.71.845 1.238.686.518-.156.826-.735.673-1.262l-1.252-4.313c-.287-.978.302-2.033 1.263-2.288.84-.222 1.83.307 2.129 1.144l1.999 6.046c.75 2.297.678 4.323-.732 6.346zm29.131 5.338l-.325-.89c-.468-1.715-1.52-2.902-2.29-3.771-.238-.269-.443-.5-.567-.677-1.059-1.52-1.441-2.895-1.198-4.544l.005-.023c.083-.55.232-1.125.455-1.76l.006-.019 2-6.046c.312-.872 1.353-1.395 2.215-1.119.915.299 1.454 1.316 1.176 2.265l-1.252 4.31c-.153.528.156 1.107.673 1.263.527.16 1.082-.148 1.238-.686l1.25-4.308c.494-1.687.418-3.537-.21-5.176l-2.29-5.894c-.365-.941.171-2.027 1.127-2.291.81-.216 1.683.208 2.003 1.013l2.915 7.342c.479 1.211.55 2.57.2 3.83l-2.061 7.547c-.247.905-.243 1.861.012 2.764l1.942 6.87h-7.024z"/>
        <path d="M21.363 11.572v6.213H15.27c-.55 0-.997.454-.997 1.015v6.164c0 .561.446 1.016.997 1.016h6.093v6.212c0 .561.445 1.016.996 1.016h6.045c.55 0 .996-.455.996-1.016V25.98h6.093c.55 0 .996-.455.996-1.016V18.8c0-.56-.446-1.015-.996-1.015H29.4v-6.213c0-.56-.446-1.015-.996-1.015H22.36c-.55 0-.997.454-.997 1.015zm1.992 7.228v-6.212h4.053V18.8c0 .561.446 1.016.996 1.016h6.093v4.133h-6.093c-.55 0-.996.454-.996 1.015v6.213h-4.053v-6.213c0-.56-.446-1.015-.996-1.015h-6.093v-4.133h6.093c.55 0 .996-.455.996-1.016zM24.635 2.285c.209.51.797.76 1.3.549.5-.21.748-.816.539-1.326-.21-.511-.798-.761-1.3-.55-.501.211-.748.816-.539 1.327z"/>
    </g>
    <defs>
        <clipPath id="clip0">
            <path fill="#fff" d="M0 0H51V52H0z"/>
        </clipPath>
    </defs>
</svg>
