<svg xmlns="http://www.w3.org/2000/svg" width="155" height="134" fill="none" viewBox="0 0 155 134">
    <g clip-path="url(#clip0)">
        <path fill="url(#paint0_linear)" d="M77.498 26.682c1.672 0 3.027-1.172 3.027-2.618V10.732c0-1.445-1.355-2.617-3.027-2.617-1.672 0-3.027 1.172-3.027 2.617v13.332c0 1.446 1.355 2.618 3.027 2.618z"/>
        <path fill="url(#paint1_linear)" d="M54.738 30.982c.575.79 1.558 1.221 2.563 1.221.552 0 1.11-.13 1.612-.403 1.414-.77 1.838-2.387.947-3.61l-8.066-11.064c-.892-1.222-2.761-1.589-4.175-.818-1.415.77-1.839 2.386-.947 3.61l8.066 11.064z"/>
        <path fill="url(#paint2_linear)" d="M96.094 31.8c.502.273 1.06.403 1.61.403 1.006 0 1.99-.433 2.565-1.223l8.058-11.064c.89-1.223.466-2.839-.949-3.61-1.416-.769-3.284-.402-4.175.821l-8.058 11.064c-.89 1.224-.465 2.84.95 3.61z"/>
        <path fill="url(#paint3_linear)" d="M154.024 69.73l-5.26-8.034c-.824-1.258-2.671-1.7-4.125-.988-1.455.712-1.967 2.309-1.143 3.566l5.257 8.03c.264.404.195.793.131.99-.062.188-.232.536-.677.749l-8.107 3.882c-.72.344-1.66.127-2.052-.472l-2.06-3.15c-.008-.014-.018-.027-.027-.04L114.67 41.705c-.263-.4-.197-.785-.134-.978.061-.188.23-.533.675-.746l8.116-3.883c.73-.35 1.647-.137 2.045.474l4.746 7.248c.823 1.258 2.671 1.7 4.125.988 1.455-.712 1.967-2.309 1.144-3.567l-4.743-7.244c-2.023-3.1-6.619-4.213-10.247-2.48l-8.116 3.884c-1.756.839-3.025 2.225-3.572 3.905-.516 1.584-.332 3.238.514 4.69l-4.471 1.12c-1.905.476-3.06.734-3.702.734h-.007c-.442-.001-.924-.147-2.299-.597-.623-.204-1.4-.459-2.354-.747l-7.921-2.394c-4.381-1.322-6.357-1.251-9.22-1.025l-13.506 1.045c-6.158.471-10.083 1.672-12.25 3.755l-7.698-1.928c.829-1.445 1.006-3.083.495-4.653-.548-1.678-1.816-3.065-3.57-3.904l-8.111-3.885c-3.63-1.735-8.23-.622-10.253 2.477L.984 69.726c-1 1.523-1.248 3.294-.697 4.988.548 1.682 1.817 3.07 3.57 3.908l8.111 3.884c1.16.554 2.42.818 3.663.818 2.642 0 5.21-1.188 6.59-3.295l.857-1.31c2.338.89 4.302 2.183 5.64 3.714-1.306 1.32-2.13 2.95-2.36 4.723-.306 2.344.46 4.644 2.156 6.477 1.681 1.818 4.085 2.965 6.774 3.235-.284 2.324.484 4.602 2.167 6.415 1.74 1.88 4.198 2.977 6.77 3.235-.283 2.321.483 4.597 2.16 6.411 1.681 1.821 4.086 2.97 6.777 3.241-.285 2.326.485 4.604 2.167 6.418 2.006 2.168 4.968 3.297 7.957 3.296 2.232 0 4.48-.629 6.356-1.924l6.338-4.385c.504-.348.961-.731 1.373-1.145l3.62 2.5c1.873 1.292 4.115 1.92 6.344 1.92 2.99-.001 5.957-1.131 7.966-3.301 1.058-1.144 1.729-2.45 2.031-3.798 1.06.316 2.177.48 3.316.48.382 0 .767-.019 1.152-.055 2.713-.261 5.138-1.414 6.824-3.241 1.686-1.816 2.455-4.093 2.17-6.417 2.57-.26 5.03-1.356 6.775-3.236 1.737-1.878 2.435-4.19 2.162-6.415 2.687-.27 5.09-1.417 6.767-3.23 1.698-1.829 2.467-4.125 2.166-6.468-.228-1.778-1.052-3.413-2.362-4.737 1.335-1.53 3.295-2.826 5.635-3.715l.859 1.313c1.379 2.106 3.946 3.293 6.588 3.293 1.244 0 2.505-.263 3.666-.818l8.107-3.882c1.752-.838 3.02-2.224 3.57-3.903.555-1.692.312-3.463-.685-4.99zM16.951 77.45c-.393.601-1.334.818-2.051.475l-8.111-3.884c-.443-.212-.612-.559-.674-.747-.063-.195-.13-.582.136-.988L29.627 36.57c.268-.41.772-.64 1.296-.64.255 0 .514.055.753.169l8.11 3.883.002.002c.444.212.612.558.674.745.063.193.13.577-.137.983L16.951 77.45zM39.043 90.92c-.854.59-1.932.858-3.033.752-1.103-.106-2.085-.57-2.767-1.308-.684-.739-.993-1.67-.869-2.623.123-.948.66-1.793 1.519-2.383l11.334-7.833c1.778-1.227 4.382-.975 5.804.56.683.74.992 1.67.868 2.619-.123.946-.66 1.79-1.513 2.377-.019.013-.035.027-.053.04l-11.287 7.797-.003.001zm3.137 9.09c-.683-.736-.992-1.664-.87-2.613.122-.949.66-1.798 1.515-2.39l.002-.002h.001l16.325-11.276c1.779-1.228 4.383-.977 5.805.56.682.738.99 1.667.869 2.616-.123.95-.662 1.799-1.519 2.39l-16.32 11.272c-1.781 1.228-4.385.981-5.808-.557zm11.703 10.963c-1.101-.105-2.083-.57-2.766-1.311-.683-.738-.991-1.667-.87-2.616.123-.949.662-1.797 1.517-2.389l.002-.001 11.297-7.803.041-.025c1.775-1.228 4.378-.978 5.8.555.685.74.993 1.67.87 2.623-.124.948-.661 1.793-1.52 2.384l-11.333 7.831c-.856.592-1.935.858-3.038.752zm19.835 2.125c-.123.949-.66 1.796-1.517 2.388l-6.34 4.386c-1.78 1.228-4.384.981-5.806-.557-.683-.736-.992-1.664-.87-2.614.122-.951.66-1.798 1.512-2.387l.003-.002 6.337-4.38.01-.006c1.78-1.227 4.384-.976 5.805.56.681.736.989 1.664.866 2.612zm48.037-22.734c-.682.738-1.665 1.202-2.767 1.308-1.101.107-2.179-.161-3.033-.752l-.002-.001-.001-.001-8.1-5.595c-1.307-.903-3.212-.719-4.255.41-1.043 1.13-.831 2.776.475 3.679l8.098 5.593c1.777 1.23 2.069 3.477.656 5.005-1.427 1.537-4.031 1.786-5.808.556l-8.787-6.062c-1.307-.902-3.212-.717-4.254.413-1.043 1.13-.83 2.776.477 3.678l8.783 6.059c.856.592 1.395 1.442 1.517 2.392.122.949-.187 1.877-.876 2.619-.681.738-1.662 1.202-2.764 1.308-1.103.105-2.182-.161-3.035-.749l-4.372-3.023-.022-.016-3.694-2.553-.69-.478c-1.307-.903-3.212-.719-4.255.409-.131.142-.242.291-.334.446-.438.74-.43 1.609-.02 2.337.191.338.466.646.827.896l4.396 3.039c1.765 1.232 2.053 3.471.64 4.998-1.422 1.537-4.026 1.788-5.804.562l-4.987-3.445c.207-2.24-.56-4.425-2.184-6.18-1.01-1.091-2.261-1.917-3.636-2.471 1.007-1.208 1.647-2.628 1.846-4.154.305-2.344-.461-4.644-2.16-6.48-1.01-1.088-2.26-1.912-3.632-2.465 1.01-1.212 1.65-2.635 1.846-4.163.301-2.339-.465-4.634-2.158-6.464-2.913-3.149-7.84-4.106-11.94-2.602-.327-1.302-.998-2.532-1.988-3.602-3.505-3.786-9.924-4.406-14.31-1.38l-8.106 5.602c-1.834-2.022-4.325-3.7-7.272-4.896l16.675-25.497 8.878 2.224c.04.411.117.843.246 1.3 2.149 7.64 10.285 11.199 21.232 9.292 9.225-1.605 13.022.785 20.585 5.547.785.494 1.6 1.007 2.454 1.535 5.439 3.374 11.252 7.34 15.149 10.027l9.826 6.79c.854.588 1.391 1.436 1.513 2.387.122.95-.186 1.879-.873 2.618zm-.094-11.329l-6.594-4.556c-3.951-2.725-9.846-6.745-15.4-10.19-.841-.521-1.644-1.027-2.416-1.513-7.843-4.937-13.51-8.505-25.344-6.447-3.622.63-12.251 1.369-14.154-5.396-.269-.955.004-1.283.12-1.423.404-.488 2.033-1.676 8.405-2.164L79.8 46.3c2.204-.173 3.309-.26 6.672.755l7.922 2.394c.88.266 1.585.496 2.206.7 3.815 1.249 4.825 1.249 9.836-.005l5.841-1.463 16.652 25.462c-2.947 1.195-5.437 2.871-7.267 4.892z"/>
        <path fill="url(#paint4_linear)" d="M139.43 55.379c1.671 0 3.027-1.176 3.027-2.621 0-1.446-1.356-2.617-3.027-2.617-1.672 0-3.028 1.172-3.028 2.617v.007c0 1.446 1.356 2.614 3.028 2.614z"/>
    </g>
    <defs>
        <linearGradient id="paint0_linear" x1="74.471" x2="80.525" y1="8.115" y2="8.115" gradientUnits="userSpaceOnUse">
            <stop offset=".05" stop-color="#40C1AC"/>
            <stop offset=".95" stop-color="#005EB8"/>
        </linearGradient>
        <linearGradient id="paint1_linear" x1="46.205" x2="60.326" y1="15.904" y2="15.904" gradientUnits="userSpaceOnUse">
            <stop offset=".05" stop-color="#40C1AC"/>
            <stop offset=".95" stop-color="#005EB8"/>
        </linearGradient>
        <linearGradient id="paint2_linear" x1="94.68" x2="108.793" y1="15.904" y2="15.904" gradientUnits="userSpaceOnUse">
            <stop offset=".05" stop-color="#40C1AC"/>
            <stop offset=".95" stop-color="#005EB8"/>
        </linearGradient>
        <linearGradient id="paint3_linear" x1="0" x2="155" y1="30.699" y2="30.699" gradientUnits="userSpaceOnUse">
            <stop offset=".05" stop-color="#40C1AC"/>
            <stop offset=".95" stop-color="#005EB8"/>
        </linearGradient>
        <linearGradient id="paint4_linear" x1="136.402" x2="142.457" y1="50.141" y2="50.141" gradientUnits="userSpaceOnUse">
            <stop offset=".05" stop-color="#40C1AC"/>
            <stop offset=".95" stop-color="#005EB8"/>
        </linearGradient>
        <clipPath id="clip0">
            <path fill="#fff" d="M0 0H155V134H0z"/>
        </clipPath>
    </defs>
</svg>
