<svg xmlns="http://www.w3.org/2000/svg" width="65" height="55" fill="none" viewBox="0 0 65 55">
    <path fill="#0C0F56" d="M51.303 7.291C46.29 2.591 39.61 0 32.502 0 25.392 0 18.715 2.59 13.7 7.291c-4.98 4.67-7.724 10.871-7.724 17.463-.013 3.24.67 6.456 2.013 9.49v6.395c0 .542.468 1.002 1.102 1.083l5.988.764c.279.369.604.711.969 1.021 1.332 1.139 3.148 1.779 5.042 1.778 1.251-.002 2.265-.86 2.267-1.919V25.321c-.002-1.059-1.016-1.917-2.267-1.918-2.438.003-4.706 1.058-6.014 2.799l-5.983.764c-.142.018-.28.056-.407.113-.082-.768-.124-1.541-.125-2.322C8.565 12.313 19.303 2.19 32.502 2.19c13.198 0 23.936 10.122 23.936 22.562 0 .78-.042 1.555-.125 2.322-.128-.057-.265-.095-.407-.113l-5.984-.764c-1.308-1.74-3.576-2.796-6.014-2.799-1.25 0-2.264.854-2.27 1.912v18.046c.003 1.059 1.016 1.916 2.267 1.918 1.894 0 3.71-.64 5.042-1.778.365-.31.69-.652.97-1.02l2.142-.267v3.163c-.004 2.855-2.737 5.167-6.11 5.17h-1.746c-.171-1.292-1.463-2.27-3-2.27H35.44c-1.668 0-3.02 1.144-3.02 2.556v1.617c0 1.411 1.352 2.555 3.02 2.555h5.762c1.537 0 2.828-.978 3-2.27h1.743c4.804-.003 8.698-3.297 8.703-7.362v-3.49l1.26-.16c.634-.082 1.102-.542 1.102-1.084V34.24c1.344-3.033 2.027-6.247 2.017-9.487 0-6.59-2.743-12.792-7.724-17.462zM16.546 29.445c.001-2.022 1.846-3.7 4.228-3.847v17.483c-2.38-.152-4.222-1.828-4.228-3.847v-9.79zm-5.965-.458l3.452-.44c-.053.297-.08.598-.08.899v9.787c0 .3.026.602.078.9l-3.451-.442.001-10.704zm37.873 10.25c-.012 2.017-1.854 3.688-4.23 3.838V25.6c2.384.146 4.23 1.825 4.23 3.848v9.79zm-7.25 13.573H35.44c-.239 0-.432-.164-.432-.365v-1.622c0-.202.193-.365.432-.365h5.762c.238 0 .431.163.431.365l.002 1.622c0 .201-.193.365-.432.365zm13.21-13.115l-3.45.442c.052-.298.078-.599.077-.9V29.45c0-.302-.025-.604-.078-.903l3.452.44v10.709z"/>
</svg>
