<svg xmlns="http://www.w3.org/2000/svg" width="67" height="70" fill="none" viewBox="0 0 67 70">
    <path fill="#fff" d="M33.028 2.302S20.595 8.78 5.092 10.94c-.521.075-.908.542-.904 1.091v3.277c-.031 1.49 2.124 1.49 2.094 0v-2.337c14.56-2.165 26.545-8.129 27.218-8.476.673.347 12.377 6.292 27.217 8.476v22.02c0 13.279-6.766 20.801-13.632 25.185-6.742 4.304-13.344 5.378-13.585 5.417-.24-.037-6.843-1.113-13.584-5.417C13.05 55.793 6.282 48.27 6.282 34.992V19.684c.03-1.49-2.125-1.49-2.094 0v15.308c0 14.066 7.37 22.41 14.638 27.05 7.267 4.64 14.519 5.757 14.519 5.757.103.016.208.016.31 0 0 0 7.253-1.118 14.52-5.758 7.267-4.64 14.638-12.983 14.638-27.049v-22.96c.004-.55-.383-1.016-.904-1.091C46.405 8.78 33.973 2.3 33.973 2.3c-.298-.204-.772-.102-.945 0zm.472 13.007c-10.394 0-18.84 8.823-18.84 19.683s8.446 19.694 18.84 19.694c5.433 0 10.341-2.407 13.78-6.257.954-1.065-.576-2.56-1.53-1.495-3.059 3.424-7.409 5.563-12.25 5.563-9.263 0-16.746-7.827-16.746-17.505 0-9.677 7.483-17.495 16.746-17.495 9.264 0 16.746 7.817 16.746 17.495 0 2.982-.707 5.784-1.963 8.238-.658 1.287 1.19 2.319 1.849 1.032 1.412-2.762 2.208-5.924 2.208-9.27 0-10.86-8.445-19.683-18.84-19.683zm-4.19 9.842v5.475h-5.23c-.578-.002-1.048.485-1.05 1.09v6.564c.002.604.472 1.092 1.05 1.09h5.23v5.475c.003.605.475 1.093 1.054 1.09h6.273c.578.002 1.048-.486 1.05-1.09V39.37h5.233c.578.002 1.049-.486 1.051-1.09v-6.565c-.002-.604-.473-1.091-1.05-1.089h-5.233v-5.475c-.002-.604-.473-1.092-1.051-1.09H30.31c-.59.055-1 .527-1 1.09zm2.097 1.098h4.187v5.466c.002.601.468 1.088 1.043 1.09h5.24v4.377h-5.24c-.578.002-1.045.494-1.043 1.098v5.467h-4.187V38.28c.002-.604-.465-1.096-1.043-1.098h-5.24v-4.377h5.24c.575-.002 1.04-.489 1.043-1.09V26.25z"/>
</svg>
