<svg xmlns="http://www.w3.org/2000/svg" width="35" height="36" fill="none" viewBox="0 0 35 36">
    <g fill="#fff" clip-path="url(#clip0)">
        <path d="M20.645 18c0 1.903-1.474 3.445-3.293 3.445-1.819 0-3.293-1.542-3.293-3.445 0-1.903 1.474-3.445 3.293-3.445 1.819 0 3.293 1.542 3.293 3.445z"/>
        <path d="M25.054 11.905c-.159-.449-.411-.855-.74-1.188-.318-.344-.706-.608-1.136-.774-.348-.141-.87-.31-1.834-.355-1.042-.05-1.354-.06-3.992-.06-2.639 0-2.95.01-3.993.06-.963.046-1.486.214-1.834.355-.43.166-.818.43-1.136.774-.328.333-.58.739-.74 1.188-.135.364-.295.912-.34 1.92-.047 1.09-.057 1.416-.057 4.176 0 2.76.01 3.087.058 4.177.044 1.008.204 1.555.34 1.919.158.449.41.855.739 1.188.319.344.707.608 1.136.773.348.142.871.31 1.834.356 1.042.05 1.354.06 3.993.06 2.638 0 2.95-.01 3.992-.06.963-.045 1.486-.214 1.834-.356.862-.347 1.543-1.06 1.876-1.961.135-.364.296-.912.34-1.92.047-1.09.057-1.416.057-4.176 0-2.76-.01-3.087-.057-4.177-.044-1.007-.205-1.555-.34-1.919zm-7.702 11.403c-2.802 0-5.074-2.376-5.074-5.307 0-2.932 2.272-5.308 5.074-5.308s5.073 2.376 5.073 5.308c0 2.931-2.271 5.307-5.073 5.307zm5.274-9.584c-.655 0-1.186-.556-1.186-1.24 0-.685.53-1.24 1.186-1.24.654 0 1.185.555 1.185 1.24 0 .684-.53 1.24-1.185 1.24z"/>
        <path d="M17.352 0C7.852 0 .146 8.06.146 18s7.705 18 17.206 18 17.206-8.06 17.206-18S26.853 0 17.352 0zm9.82 22.261c-.047 1.1-.215 1.852-.459 2.51-.513 1.388-1.562 2.485-2.89 3.022-.628.256-1.346.43-2.397.48-1.054.05-1.39.063-4.074.063-2.683 0-3.02-.012-4.073-.062-1.052-.05-1.77-.225-2.398-.48-.66-.26-1.257-.667-1.75-1.193-.503-.516-.892-1.141-1.14-1.83-.244-.658-.411-1.41-.459-2.51-.048-1.102-.06-1.454-.06-4.261 0-2.807.012-3.16.06-4.261.048-1.1.215-1.852.459-2.51.248-.689.637-1.314 1.14-1.83.493-.526 1.09-.933 1.75-1.192.628-.256 1.346-.43 2.398-.48 1.053-.05 1.39-.063 4.073-.063 2.683 0 3.02.012 4.073.063 1.052.05 1.77.224 2.399.48.659.26 1.256.666 1.75 1.192.502.516.891 1.141 1.14 1.83.244.658.41 1.41.459 2.51.048 1.102.059 1.454.059 4.261 0 2.807-.011 3.16-.06 4.261z"/>
    </g>
    <defs>
        <clipPath id="clip0">
            <path fill="#fff" d="M0 0H34.411V36H0z" transform="translate(.146)"/>
        </clipPath>
    </defs>
</svg>
