<svg xmlns="http://www.w3.org/2000/svg" width="35" height="36" fill="none" viewBox="0 0 35 36">
    <g clip-path="url(#clip0)">
        <path fill="#fff" d="M17.206 0C7.705 0 0 8.06 0 18s7.705 18 17.206 18c9.5 0 17.205-8.06 17.205-18S26.707 0 17.206 0zm-5 27.21h-4.19V14.023h4.19v13.189zM10.11 12.222h-.027c-1.407 0-2.316-1.012-2.316-2.278 0-1.294.937-2.279 2.37-2.279 1.434 0 2.316.985 2.344 2.279 0 1.266-.91 2.278-2.371 2.278zm17.204 14.99h-4.19v-7.056c0-1.773-.606-2.982-2.122-2.982-1.158 0-1.847.816-2.15 1.603-.11.282-.138.676-.138 1.07v7.365h-4.19s.055-11.951 0-13.189h4.19v1.867c.557-.898 1.553-2.176 3.776-2.176 2.757 0 4.825 1.885 4.825 5.935v7.563z"/>
    </g>
    <defs>
        <clipPath id="clip0">
            <path fill="#fff" d="M0 0H34.411V36H0z"/>
        </clipPath>
    </defs>
</svg>
