<svg xmlns="http://www.w3.org/2000/svg" width="47" height="50" fill="none" viewBox="0 0 47 50">
    <path fill="#CACACA" d="M23.5 50C10.542 50 0 38.786 0 25S10.542 0 23.5 0 47 11.214 47 25 36.458 50 23.5 50zm0-46.875C12.161 3.125 2.937 12.938 2.937 25c0 12.063 9.224 21.875 20.563 21.875 11.339 0 20.563-9.813 20.563-21.875 0-12.063-9.224-21.875-20.563-21.875z"/>
    <path fill="#CACACA" d="M33.781 26.563H13.22c-.811 0-1.469-.7-1.469-1.563s.658-1.563 1.469-1.563H33.78c.811 0 1.469.7 1.469 1.563s-.658 1.563-1.469 1.563z"/>
    <path fill="#CACACA" d="M23.5 37.5c-.81 0-1.469-.7-1.469-1.563V14.064c0-.863.658-1.563 1.469-1.563.81 0 1.469.7 1.469 1.563v21.874c0 .863-.658 1.563-1.469 1.563z"/>
</svg>
