<svg xmlns="http://www.w3.org/2000/svg" width="135" height="113" fill="none" viewBox="0 0 135 113">
    <path fill="url(#paint0_linear)" d="M123.135 0c-5.516 0-10.164 3.587-11.488 8.43L19.132 37.75H0v37.5h19.132l10.643 3.373-5.015 14.226 37.51 11.889 5.016-14.227 44.361 14.06c1.324 4.842 5.972 8.429 11.488 8.429 6.542 0 11.865-5.047 11.865-11.25v-90.5C135 5.047 129.677 0 123.135 0zM23.73 44.2l63.545-20.138v64.876L23.73 68.8V44.2zm71.456-22.645l16.084-5.098v80.086l-16.084-5.098v-69.89zM7.91 45.25h7.91v22.5H7.91v-22.5zm49.366 49.996l-22.507-7.132L37.277 81l22.507 7.133-2.508 7.114zm69.814 6.504c0 2.068-1.774 3.75-3.955 3.75s-3.955-1.682-3.955-3.75v-90.5c0-2.068 1.774-3.75 3.955-3.75s3.955 1.682 3.955 3.75v90.5z"/>
    <defs>
        <linearGradient id="paint0_linear" x1="0" x2="135" y1="0" y2="0" gradientUnits="userSpaceOnUse">
            <stop offset=".05" stop-color="#40C1AC"/>
            <stop offset=".95" stop-color="#005EB8"/>
        </linearGradient>
    </defs>
</svg>
