<svg xmlns="http://www.w3.org/2000/svg" width="56" height="61" fill="none" viewBox="0 0 56 61">
    <path fill="#0C0F56" d="M41.057 26.562c-.072-.292-.197-.566-.37-.803-.171-.237-.386-.434-.63-.578l-.713-.428c-.049-.024-.09-.063-.119-.113-.029-.049-.044-.106-.044-.165.07-.53.106-1.066.106-1.602s-.035-1.072-.105-1.603c0-.058.015-.115.044-.164.03-.05.07-.088.12-.112l.712-.428c.244-.144.459-.341.63-.579.172-.237.298-.51.37-.802.07-.285.087-.582.049-.874-.038-.291-.13-.571-.272-.823l-1.974-3.559c-.29-.506-.748-.872-1.279-1.023-.53-.15-1.093-.074-1.574.213l-.72.433c-.074.038-.157.053-.239.043-.082-.01-.16-.046-.223-.102-.77-.615-1.609-1.122-2.495-1.51-.116-.05-.252-.162-.252-.314v-.858c-.008-.6-.233-1.173-.628-1.592-.395-.419-.927-.65-1.478-.643h-3.946c-.551-.007-1.082.224-1.477.643-.395.42-.62.991-.628 1.591v.858c0 .152-.136.264-.253.316-.886.386-1.724.893-2.494 1.508-.064.056-.142.091-.223.102-.082.01-.165-.005-.24-.043l-.72-.433c-.48-.287-1.043-.363-1.574-.212-.53.15-.988.516-1.28 1.022l-1.972 3.56c-.14.251-.234.532-.272.823-.038.292-.022.59.05.874.07.292.196.565.368.802.172.238.386.435.63.579l.713.428c.05.024.09.063.12.112.029.05.044.107.043.165-.07.53-.105 1.066-.106 1.602 0 .537.036 1.072.106 1.603 0 .059-.015.116-.044.165-.03.049-.07.088-.12.112l-.713.428c-.244.144-.458.34-.63.578-.172.238-.297.51-.369.803-.07.284-.087.581-.049.873.038.292.13.572.271.823l1.975 3.56c.29.506.748.871 1.279 1.022.53.15 1.093.075 1.574-.213l.72-.432c.074-.039.157-.053.239-.043.082.01.159.046.223.102.77.614 1.608 1.121 2.495 1.509.116.05.252.163.252.314v.858c.007.6.233 1.173.628 1.592.395.42.927.65 1.478.643h3.946c.551.007 1.082-.224 1.477-.643.394-.419.62-.99.628-1.591v-.858c0-.151.136-.264.253-.315.886-.387 1.724-.894 2.494-1.508.064-.056.141-.092.223-.102.082-.01.165.004.239.043l.72.433c.48.287 1.044.363 1.575.213.53-.151.989-.517 1.28-1.024l1.971-3.559c.142-.251.235-.531.273-.823.038-.292.021-.59-.05-.874zm-1.721.71l-1.974 3.56c-.055.086-.138.146-.232.17-.095.023-.193.008-.278-.043l-.72-.433c-.366-.214-.782-.31-1.197-.276-.414.033-.812.195-1.145.466-.651.52-1.36.95-2.11 1.276-.391.16-.73.444-.971.816-.241.371-.374.814-.382 1.27v.857c-.007.095-.049.182-.116.243-.066.062-.152.092-.239.085h-3.946c-.087.007-.173-.023-.24-.085-.066-.061-.108-.148-.115-.243v-.858c-.008-.455-.14-.897-.381-1.269-.242-.372-.58-.656-.971-.815-.75-.327-1.46-.756-2.11-1.277-.384-.308-.846-.475-1.322-.477-.357 0-.708.098-1.021.286l-.72.433c-.085.05-.183.065-.277.042-.094-.024-.177-.084-.232-.17l-1.974-3.558c-.02-.032-.031-.068-.037-.106-.005-.037-.003-.076.007-.112.011-.044.03-.085.057-.12.027-.036.06-.065.098-.085l.713-.43c.359-.21.651-.534.839-.928.187-.395.26-.842.21-1.283-.058-.442-.087-.888-.088-1.335.001-.446.03-.892.088-1.334.05-.442-.023-.89-.21-1.284-.188-.395-.48-.72-.84-.93l-.713-.428c-.038-.02-.071-.05-.098-.085-.026-.035-.046-.076-.057-.12-.01-.037-.012-.075-.006-.113.005-.038.018-.073.037-.105l1.974-3.56c.056-.085.14-.145.233-.168.094-.024.193-.009.277.042l.72.433c.367.214.782.31 1.197.276.415-.034.813-.196 1.146-.467.651-.52 1.36-.949 2.11-1.275.391-.16.73-.444.97-.816.242-.372.375-.814.382-1.27v-.858c.008-.094.05-.182.116-.243.066-.062.152-.092.239-.085h3.946c.087-.008.173.023.24.084.066.062.107.149.115.243v.858c.008.455.14.898.381 1.27.242.371.58.655.971.815.75.327 1.46.756 2.11 1.277.334.271.732.433 1.146.467.415.034.83-.062 1.197-.276l.72-.433c.084-.051.183-.067.277-.043.094.023.177.084.232.17l1.974 3.559c.02.032.031.068.037.105.005.038.002.076-.007.113-.011.044-.03.085-.057.12-.027.036-.06.064-.098.085l-.713.429c-.36.21-.651.534-.838.93-.188.395-.26.842-.21 1.283.058.442.087.888.087 1.334 0 .447-.03.893-.087 1.335-.05.441.023.889.21 1.284.188.395.48.72.84.93l.713.428c.038.02.07.049.097.084.027.035.047.076.058.12.009.037.01.076.005.114-.005.037-.018.073-.037.105z"/>
    <path fill="#0C0F56" d="M28 16.203c-1.211 0-2.396.391-3.403 1.125-1.007.733-1.792 1.775-2.256 2.994-.463 1.219-.585 2.56-.348 3.855.236 1.294.82 2.483 1.676 3.416.857.933 1.948 1.568 3.136 1.826 1.188.257 2.42.125 3.539-.38 1.12-.505 2.076-1.36 2.749-2.457.673-1.098 1.032-2.387 1.032-3.707-.002-1.769-.648-3.465-1.796-4.715-1.148-1.251-2.705-1.955-4.329-1.957zm0 11.438c-.865 0-1.711-.28-2.43-.803-.72-.524-1.28-1.268-1.612-2.14-.331-.87-.418-1.828-.249-2.753.169-.924.586-1.773 1.197-2.44.612-.666 1.392-1.12 2.24-1.304.85-.184 1.729-.09 2.528.271.8.36 1.483.972 1.964 1.755.48.784.737 1.705.737 2.648-.001 1.264-.463 2.475-1.283 3.368-.82.894-1.932 1.396-3.092 1.398zM26.247 59.094V45.75c0-.253-.092-.495-.256-.674l-1.75-1.906-1.237 1.348 1.493 1.627v12.949h1.75zM22.75 40.984c0-.565-.154-1.118-.442-1.588-.289-.47-.699-.837-1.178-1.053-.48-.217-1.008-.273-1.517-.163-.51.11-.977.383-1.344.782-.367.4-.617.91-.719 1.464-.1.555-.049 1.13.15 1.653.198.522.535.969.967 1.283.431.314.939.482 1.458.482.696 0 1.364-.302 1.856-.838s.769-1.263.769-2.022zm-3.5 0c0-.188.051-.372.148-.53.096-.156.232-.278.392-.35.16-.072.336-.091.506-.054.17.036.325.127.448.26.122.134.205.303.24.488.033.185.016.377-.05.551-.067.174-.179.323-.323.428-.144.105-.313.16-.486.16-.232 0-.455-.1-.619-.279-.164-.178-.256-.42-.256-.674zM11.375 47.656c0 .566.154 1.119.442 1.589.289.47.699.837 1.178 1.053.48.216 1.008.273 1.517.163.51-.11.977-.383 1.344-.783.367-.4.617-.91.719-1.464.1-.555.049-1.13-.15-1.652-.198-.523-.535-.969-.967-1.283-.431-.314-.939-.482-1.458-.482-.696 0-1.364.301-1.856.837-.492.537-.769 1.264-.769 2.022zm3.5 0c0 .189-.051.373-.148.53-.096.157-.232.279-.392.35-.16.073-.336.092-.506.055-.17-.037-.325-.127-.448-.26-.122-.134-.205-.304-.24-.489-.033-.185-.016-.376.05-.55.067-.175.179-.324.323-.428.144-.105.313-.16.486-.16.232 0 .455.1.619.278.164.179.256.422.256.674zM20.122 59.094v-6.672c0-.253-.092-.495-.256-.674l-1.75-1.906-1.237 1.348 1.493 1.627v6.277h1.75zM30.006 45.076c-.164.179-.256.421-.256.674v13.344h1.75v-12.95l1.494-1.626-1.238-1.348-1.75 1.906zM38.5 40.984c0-.565-.154-1.118-.442-1.588-.289-.47-.699-.837-1.178-1.053-.48-.217-1.008-.273-1.517-.163-.51.11-.977.383-1.344.782-.367.4-.617.91-.719 1.464-.1.555-.049 1.13.15 1.653.198.522.535.969.967 1.283.431.314.939.482 1.458.482.696 0 1.364-.302 1.856-.838s.769-1.263.769-2.022zm-3.5 0c0-.188.051-.372.148-.53.096-.156.232-.278.392-.35.16-.072.336-.091.506-.054.17.036.325.127.448.26.122.134.205.303.24.488.033.185.016.377-.05.551-.067.174-.179.323-.323.428-.144.105-.313.16-.486.16-.232 0-.455-.1-.619-.279-.164-.178-.256-.42-.256-.674zM42 50.516c.52 0 1.027-.168 1.458-.482.432-.315.769-.761.967-1.283.199-.523.25-1.098.15-1.653-.102-.554-.352-1.064-.719-1.464-.367-.4-.835-.672-1.344-.782-.51-.11-1.037-.054-1.517.163-.48.216-.89.582-1.178 1.053-.288.47-.442 1.023-.442 1.588 0 .759.277 1.486.769 2.022.492.536 1.16.838 1.856.838zm0-3.813c.173 0 .342.056.486.16.144.105.256.254.322.428.067.175.084.366.05.551-.034.185-.117.355-.24.488-.122.134-.278.224-.447.261-.17.037-.346.018-.506-.054-.16-.072-.296-.194-.392-.351-.097-.157-.148-.341-.148-.53 0-.252.092-.495.256-.674.164-.178.387-.279.619-.279zM37.625 52.816l1.494-1.627-1.238-1.347-1.75 1.906c-.164.179-.256.421-.256.674v6.672h1.75v-6.278z"/>
    <path fill="#0C0F56" d="M2.217 18.72l2.548 1.467c-1.224 3.978-1.566 8.215-.998 12.365.568 4.15 2.03 8.093 4.266 11.51l1.426-1.106c-2.048-3.128-3.397-6.734-3.94-10.53-.541-3.796-.262-7.677.817-11.335l2.07 1.192c.14.08.297.119.456.11.158-.01.31-.066.442-.162.131-.097.236-.23.303-.386.067-.157.094-.33.078-.501l-.612-6.488c2.236-3.66 5.326-6.605 8.952-8.533 3.627-1.928 7.66-2.77 11.683-2.44 4.024.331 7.895 1.823 11.215 4.322 3.32 2.5 5.969 5.916 7.675 9.9l-2.22.629c-.154.043-.294.131-.405.254-.11.123-.19.277-.226.444-.038.168-.032.344.015.508.047.165.134.313.252.428l4.436 4.312c.198 1.294.299 2.603.3 3.915.012 5.156-1.464 10.185-4.219 14.378l1.426 1.107c2.966-4.516 4.555-9.932 4.544-15.485-.002-1.407-.108-2.812-.319-4.2l2.02-6.343c.052-.164.062-.34.03-.509-.033-.169-.107-.325-.215-.452s-.245-.22-.398-.268c-.152-.048-.314-.05-.467-.006l-2.834.802c-1.8-4.35-4.639-8.092-8.22-10.84-3.58-2.747-7.77-4.398-12.136-4.78-4.366-.384-8.745.516-12.683 2.605-3.938 2.088-7.289 5.289-9.704 9.268l-5.367 3.167c-.14.082-.255.204-.336.353-.08.149-.123.318-.122.49 0 .173.045.342.127.49.082.148.2.268.34.349zm49.795.39l-1.1 3.46-2.51-2.439 3.61-1.022zM7.438 16.121l.342 3.643-3.298-1.898 2.956-1.745z"/>
</svg>
