<svg xmlns="http://www.w3.org/2000/svg" width="35" height="36" fill="none" viewBox="0 0 35 36">
    <g clip-path="url(#clip0)">
        <path fill="#fff" d="M17.647 0C8.147 0 .441 8.06.441 18s7.705 18 17.206 18 17.206-8.06 17.206-18S27.148 0 17.647 0zm7.856 14.034c.008.178.011.356.011.534 0 5.46-3.972 11.755-11.236 11.755-2.23 0-4.306-.683-6.053-1.855.309.038.623.057.942.057 1.85 0 3.553-.66 4.905-1.769-1.73-.033-3.187-1.228-3.69-2.87.24.049.489.075.742.075.36 0 .71-.05 1.042-.145-1.807-.379-3.168-2.05-3.168-4.05v-.053c.532.31 1.14.496 1.789.517-1.06-.74-1.758-2.006-1.758-3.44 0-.756.196-1.465.535-2.076 1.948 2.5 4.858 4.144 8.14 4.317-.067-.303-.102-.618-.102-.942 0-2.28 1.768-4.131 3.95-4.131 1.135 0 2.161.502 2.882 1.305.9-.185 1.744-.53 2.508-1.003-.296.965-.922 1.774-1.737 2.286.799-.1 1.56-.322 2.268-.651-.529.829-1.199 1.556-1.97 2.14z"/>
    </g>
    <defs>
        <clipPath id="clip0">
            <path fill="#fff" d="M0 0H34.411V36H0z" transform="translate(.441)"/>
        </clipPath>
    </defs>
</svg>
