<svg xmlns="http://www.w3.org/2000/svg" width="35" height="36" fill="none" viewBox="0 0 35 36">
    <g fill="#fff" clip-path="url(#clip0)">
        <path d="M15.65 21.372l5.597-3.373-5.597-3.372v6.745z"/>
        <path d="M17.794 0C8.293 0 .588 8.06.588 18s7.705 18 17.206 18c9.5 0 17.205-8.06 17.205-18S27.295 0 17.794 0zm10.75 18.018s0 3.65-.442 5.411c-.248.964-.974 1.723-1.895 1.983-1.683.463-8.413.463-8.413.463s-6.713 0-8.413-.482c-.921-.259-1.648-1.019-1.896-1.983C7.042 21.67 7.042 18 7.042 18s0-3.65.443-5.41c.248-.964.992-1.742 1.896-2.002 1.682-.463 8.413-.463 8.413-.463s6.73 0 8.413.482c.92.259 1.647 1.019 1.895 1.982.46 1.76.442 5.43.442 5.43z"/>
    </g>
    <defs>
        <clipPath id="clip0">
            <path fill="#fff" d="M0 0H34.411V36H0z" transform="translate(.588)"/>
        </clipPath>
    </defs>
</svg>
